# xmcd
#
# Track frame offsets: 
#        150
#        24357
#        37382
#        66567
#
# Disc length: 1258 seconds
#
# Revision: 2
# Processed by: cddbd v1.5.2PL0 Copyright (c) Steve Scherf et al.
# Submitted via: ExactAudioCopy v1.0b3
#
DISCID=3704e804
DTITLE=梅艷芳 - 梅艷芳 (Single)
DYEAR=1988
DGENRE=Pop
TTITLE0=似水流年
TTITLE1=心債
TTITLE2=痴痴愛一次
TTITLE3=傷心教堂
EXTD=
EXTT0=
EXTT1=
EXTT2=
EXTT3=
PLAYORDER=
